<svg data-name="Layer 1" xmlns="http://www.w3.org/2000/svg" viewBox="0 0 32.58 31.77"><title>github</title><path d="M16.29 0a16.29 16.29 0 0 0-5.15 31.75c.81.15 1.11-.35 1.11-.79v-2.77c-4.53 1-5.49-2.18-5.49-2.18a4.3 4.3 0 0 0-1.81-2.38c-1.48-1 .11-1 .11-1a3.41 3.41 0 0 1 2.5 1.68 3.47 3.47 0 0 0 4.74 1.35 3.54 3.54 0 0 1 1-2.18c-3.61-.41-7.42-1.81-7.42-8a6.3 6.3 0 0 1 1.69-4.41 5.82 5.82 0 0 1 .16-4.31s1.37-.44 4.48 1.63a15.41 15.41 0 0 1 8.16 0c3.11-2.11 4.47-1.67 4.47-1.67a5.82 5.82 0 0 1 .16 4.31 6.26 6.26 0 0 1 1.68 4.37c0 6.26-3.81 7.64-7.44 8a3.87 3.87 0 0 1 1.11 3v4.46c0 .53.29 1 1.12.79A16.3 16.3 0 0 0 16.29 0z" fill="#191717" fill-rule="evenodd"/></svg>